<svg width="800" height="600" viewBox="0 0 800 600" fill="none" xmlns="http://www.w3.org/2000/svg">
  <rect width="800" height="600" fill="#F8F9FA"/>
  <path d="M400 150C344.772 150 300 194.772 300 250C300 305.228 344.772 350 400 350C455.228 350 500 305.228 500 250C500 194.772 455.228 150 400 150Z" fill="#0B8CBF" fill-opacity="0.1"/>
  <path d="M400 180C361.089 180 330 211.089 330 250C330 288.911 361.089 320 400 320C438.911 320 470 288.911 470 250C470 211.089 438.911 180 400 180Z" fill="#0B8CBF" fill-opacity="0.2"/>
  <path d="M400 210C377.909 210 360 227.909 360 250C360 272.091 377.909 290 400 290C422.091 290 440 272.091 440 250C440 227.909 422.091 210 400 210Z" fill="#0B8CBF" fill-opacity="0.3"/>
  <path d="M400 240C394.477 240 390 244.477 390 250C390 255.523 394.477 260 400 260C405.523 260 410 255.523 410 250C410 244.477 405.523 240 400 240Z" fill="#0B8CBF"/>
  <path d="M350 350L400 400L450 350" stroke="#0B8CBF" stroke-width="8" stroke-linecap="round" stroke-linejoin="round"/>
  <path d="M250 450H550" stroke="#0B8CBF" stroke-width="8" stroke-linecap="round"/>
  <path d="M300 500H500" stroke="#0B8CBF" stroke-width="8" stroke-linecap="round"/>
  <path d="M350 550H450" stroke="#0B8CBF" stroke-width="8" stroke-linecap="round"/>
  <text x="400" y="100" font-family="Arial" font-size="120" font-weight="bold" text-anchor="middle" fill="#0B8CBF">404</text>
</svg> 